<svg xmlns="http://www.w3.org/2000/svg" version="1.1" xmlns:xlink="http://www.w3.org/1999/xlink" xmlns:svgjs="http://svgjs.dev/svgjs" width="1500" height="1500" viewBox="0 0 1500 1500"><rect width="1500" height="1500" fill="#ffffff"></rect><g transform="matrix(0.6666666666666666,0,0,0.6666666666666666,249.84533502593098,420.941935483871)"><svg viewBox="0 0 378 248" data-background-color="#ffffff" preserveAspectRatio="xMidYMid meet" height="984" width="1500" xmlns="http://www.w3.org/2000/svg" xmlns:xlink="http://www.w3.org/1999/xlink"><g id="tight-bounds" transform="matrix(1,0,0,1,0.05846336019808973,0.4000000000000057)"><svg viewBox="0 0 377.8830732796038 247.2" height="247.2" width="377.8830732796038"><g><svg viewBox="0 0 395.52 258.737559085257" height="247.2" width="377.8830732796038"><g transform="matrix(1,0,0,1,0,191.78051394161812)"><svg viewBox="0 0 395.52 66.95704514363884" height="66.95704514363884" width="395.52"><g id="textblocktransform"><svg viewBox="0 0 395.52 66.95704514363884" height="66.95704514363884" width="395.52" id="textblock"><g><svg viewBox="0 0 395.52 66.95704514363884" height="66.95704514363884" width="395.52"><g transform="matrix(1,0,0,1,0,0)"><svg width="395.52" viewBox="1.88 -33.33 203.03 34.37" height="66.95704514363884" data-palette-color="#f9d1d1"><path d="M12.26 0.28L12.26 0.28Q9.41 0.28 7.05-1.16 4.69-2.6 3.28-5.03 1.88-7.47 1.88-10.42L1.88-10.42Q1.88-13.37 3.28-15.8 4.69-18.23 7.05-19.67 9.41-21.11 12.26-21.11L12.26-21.11Q14.31-21.11 16.11-20.38 17.92-19.65 19.31-18.37L19.31-18.37 19.31-33.33 23.06-33.33 23.06 0 19.58 0 19.58-2.74Q18.19-1.35 16.3-0.54 14.41 0.28 12.26 0.28ZM12.74-3.13L12.74-3.13Q14.72-3.13 16.34-4.11 17.95-5.1 18.91-6.75 19.86-8.4 19.86-10.42L19.86-10.42Q19.86-12.43 18.91-14.08 17.95-15.73 16.34-16.72 14.72-17.71 12.74-17.71L12.74-17.71Q10.76-17.71 9.15-16.72 7.53-15.73 6.58-14.08 5.63-12.43 5.63-10.42L5.63-10.42Q5.63-8.4 6.58-6.75 7.53-5.1 9.15-4.11 10.76-3.13 12.74-3.13ZM33.47 0L29.72 0 29.72-20.83 33.19-20.83 33.19-17.01Q34.3-18.85 36.14-19.95 37.98-21.04 40.52-21.04L40.52-21.04 41.46-17.29Q40.8-17.5 39.93-17.5L39.93-17.5Q37.01-17.5 35.24-15.64 33.47-13.78 33.47-10.35L33.47-10.35 33.47 0ZM49.09 0L45.34 0 45.34-20.83 49.09-20.83 49.09 0ZM47.22-24.58L47.22-24.58Q46.18-24.58 45.45-25.31 44.72-26.04 44.72-27.08L44.72-27.08Q44.72-28.16 45.45-28.87 46.18-29.58 47.22-29.58L47.22-29.58Q48.29-29.58 49.01-28.87 49.72-28.16 49.72-27.08L49.72-27.08Q49.72-26.04 49.01-25.31 48.29-24.58 47.22-24.58ZM73.88-20.83L63.36 1.04 52.84-20.83 57.11-20.83 61.35-11.81Q61.94-10.59 62.46-9.41 62.98-8.23 63.46-6.53L63.46-6.53Q63.99-8.23 64.52-9.43 65.06-10.63 65.62-11.81L65.62-11.81 69.89-20.83 73.88-20.83ZM87.56 0.42L87.56 0.42Q84.3 0.42 81.71-1.04 79.12-2.5 77.65-5.02 76.17-7.53 76.17-10.63L76.17-10.63Q76.17-13.58 77.59-15.99 79.02-18.4 81.43-19.83 83.84-21.25 86.76-21.25L86.76-21.25Q89.64-21.25 92.04-19.88 94.43-18.51 95.86-16.18 97.28-13.85 97.28-10.9L97.28-10.9 97.28-9.38 83.67-9.38Q82.77-9.38 81.83-9.44 80.89-9.51 79.99-9.65L79.99-9.65Q80.37-6.88 82.51-5 84.64-3.13 87.59-3.13L87.59-3.13Q89.57-3.13 91.27-4.03 92.98-4.93 94.02-6.42L94.02-6.42 95.06-2.15Q93.57-0.94 91.64-0.26 89.71 0.42 87.56 0.42ZM79.89-12.19L79.89-12.19Q81.76-12.5 83.67-12.5L83.67-12.5 90.58-12.5Q91.34-12.5 92.09-12.45 92.84-12.4 93.6-12.33L93.6-12.33Q93.12-14.76 91.17-16.34 89.23-17.92 86.76-17.92L86.76-17.92Q84.23-17.92 82.32-16.23 80.41-14.55 79.89-12.19ZM111.86 0.42L111.86 0.42Q108.81 0.42 106.31-1.04 103.81-2.5 102.31-4.97 100.82-7.43 100.82-10.42L100.82-10.42Q100.82-13.4 102.31-15.87 103.81-18.33 106.31-19.79 108.81-21.25 111.86-21.25L111.86-21.25Q114.12-21.25 116.1-20.45 118.08-19.65 119.57-18.33L119.57-18.33 118.43-13.61Q117.56-15.35 115.8-16.53 114.05-17.71 111.83-17.71L111.83-17.71Q109.81-17.71 108.16-16.72 106.52-15.73 105.54-14.08 104.57-12.43 104.57-10.42L104.57-10.42Q104.57-8.44 105.54-6.77 106.52-5.1 108.16-4.11 109.81-3.13 111.83-3.13L111.83-3.13Q114.05-3.13 115.8-4.27 117.56-5.42 118.43-7.22L118.43-7.22 119.57-2.5Q118.08-1.18 116.1-0.38 114.12 0.42 111.86 0.42ZM127.9 0L124.15 0 124.15-33.33 127.9-33.33 127.9 0ZM144.08 0.42L144.08 0.42Q141.06 0.42 138.56-1.04 136.06-2.5 134.58-4.97 133.11-7.43 133.11-10.42L133.11-10.42Q133.11-13.44 134.58-15.89 136.06-18.33 138.56-19.79 141.06-21.25 144.08-21.25L144.08-21.25Q147.14-21.25 149.62-19.79 152.1-18.33 153.58-15.89 155.05-13.44 155.05-10.42L155.05-10.42Q155.05-7.43 153.58-4.97 152.1-2.5 149.62-1.04 147.14 0.42 144.08 0.42ZM144.08-3.13L144.08-3.13Q146.09-3.13 147.73-4.11 149.36-5.1 150.33-6.75 151.3-8.4 151.3-10.42L151.3-10.42Q151.3-12.43 150.33-14.08 149.36-15.73 147.73-16.72 146.09-17.71 144.08-17.71L144.08-17.71Q142.07-17.71 140.43-16.72 138.8-15.73 137.83-14.08 136.86-12.43 136.86-10.42L136.86-10.42Q136.86-8.4 137.83-6.75 138.8-5.1 140.43-4.11 142.07-3.13 144.08-3.13ZM164.01 0L160.26 0 160.26-20.83 163.73-20.83 163.73-17.47Q164.88-19.31 166.7-20.28 168.52-21.25 170.64-21.25L170.64-21.25Q172.86-21.25 174.75-20.16 176.65-19.06 177.83-17 179.01-14.93 179.01-11.98L179.01-11.98 179.01 0 175.26 0 175.26-11.46Q175.26-13.92 173.78-15.82 172.31-17.71 169.63-17.71L169.63-17.71Q167.45-17.71 165.73-16.13 164.01-14.55 164.01-11.56L164.01-11.56 164.01 0ZM195.19 0.42L195.19 0.42Q191.92 0.42 189.34-1.04 186.75-2.5 185.27-5.02 183.8-7.53 183.8-10.63L183.8-10.63Q183.8-13.58 185.22-15.99 186.64-18.4 189.06-19.83 191.47-21.25 194.39-21.25L194.39-21.25Q197.27-21.25 199.67-19.88 202.06-18.51 203.48-16.18 204.91-13.85 204.91-10.9L204.91-10.9 204.91-9.38 191.3-9.38Q190.39-9.38 189.46-9.44 188.52-9.51 187.62-9.65L187.62-9.65Q188-6.88 190.13-5 192.27-3.13 195.22-3.13L195.22-3.13Q197.2-3.13 198.9-4.03 200.6-4.93 201.64-6.42L201.64-6.42 202.69-2.15Q201.19-0.94 199.27-0.26 197.34 0.42 195.19 0.42ZM187.51-12.19L187.51-12.19Q189.39-12.5 191.3-12.5L191.3-12.5 198.21-12.5Q198.97-12.5 199.72-12.45 200.46-12.4 201.23-12.33L201.23-12.33Q200.74-14.76 198.8-16.34 196.85-17.92 194.39-17.92L194.39-17.92Q191.85-17.92 189.94-16.23 188.03-14.55 187.51-12.19Z" opacity="1" transform="matrix(1,0,0,1,0,0)" fill="#000000" class="wordmark-text-0" data-fill-palette-color="primary" id="text-0"></path></svg></g></svg></g></svg></g></svg></g><g transform="matrix(1,0,0,1,117.67669441852061,0)"><svg viewBox="0 0 160.16661116295876 160.16661116295876" height="160.16661116295876" width="160.16661116295876"><g><svg></svg></g><g id="icon-0"><svg viewBox="0 0 160.16661116295876 160.16661116295876" height="160.16661116295876" width="160.16661116295876"><g><path d="M0 80.083c0-44.229 35.855-80.083 80.083-80.083 44.229 0 80.083 35.855 80.084 80.083 0 44.229-35.855 80.083-80.084 80.084-44.229 0-80.083-35.855-80.083-80.084zM80.083 154.128c40.894 0 74.045-33.151 74.045-74.045 0-40.894-33.151-74.045-74.045-74.045-40.894 0-74.045 33.151-74.045 74.045 0 40.894 33.151 74.045 74.045 74.045z" data-fill-palette-color="accent" fill="#000000" stroke="transparent"></path><ellipse rx="79.28247252566459" ry="79.28247252566459" cx="80.08330558147938" cy="80.08330558147938" fill="#000000" stroke="transparent" stroke-width="0" fill-opacity="1" data-fill-palette-color="accent"></ellipse></g><g transform="matrix(1,0,0,1,50.56094479967469,36.36750211611473)"><svg viewBox="0 0 59.04472156360939 87.4316069307293" height="87.4316069307293" width="59.04472156360939"><g><svg xmlns="http://www.w3.org/2000/svg" xmlns:xlink="http://www.w3.org/1999/xlink" version="1.1" x="0" y="0" viewBox="24 11.5 52 77" style="enable-background:new 0 0 100 100;" xml:space="preserve" height="87.4316069307293" width="59.04472156360939" class="icon-dxe-0" data-fill-palette-color="quaternary" id="dxe-0"><path d="M70 66.5H60.815C60.265 63.753 58.5 54.22 58.5 45 58.5 39.092 59.923 35.386 61.299 31.802 62.43 28.854 63.5 26.069 63.5 22.5 63.5 14.942 56.502 11.5 50 11.5S36.5 14.942 36.5 22.5C36.5 26.069 37.57 28.854 38.701 31.802 40.077 35.386 41.5 39.092 41.5 45 41.5 54.214 39.735 63.752 39.185 66.5H30C25.254 66.5 24 70.425 24 72.5V82.5A1 1 0 0 0 25 83.5H26.5V87.5A1 1 0 0 0 27.5 88.5H72.5A1 1 0 0 0 73.5 87.5V83.5H75A1 1 0 0 0 76 82.5V72.5C76 70.425 74.746 66.5 70 66.5M43.5 45C43.5 38.721 41.942 34.664 40.568 31.085 39.458 28.195 38.5 25.698 38.5 22.5 38.5 15.396 45.729 13.5 50 13.5S61.5 15.396 61.5 22.5C61.5 25.698 60.542 28.194 59.432 31.085 58.058 34.665 56.5 38.721 56.5 45 56.5 53.982 58.14 63.25 58.776 66.5H41.224C41.859 63.25 43.5 53.982 43.5 45M71.5 86.5H28.5V83.5H71.5zM74 81.5H26V72.5C26 72.337 26.046 68.5 30 68.5H70C73.853 68.5 73.996 72.095 74 72.5z" fill="#ffffff" data-fill-palette-color="quaternary"></path><path d="M56 25C56 21.691 53.309 19 50 19S44 21.691 44 25 46.691 31 50 31 56 28.309 56 25M46 25C46 22.794 47.794 21 50 21S54 22.794 54 25 52.206 29 50 29 46 27.206 46 25" fill="#ffffff" data-fill-palette-color="quaternary"></path></svg></g></svg></g></svg></g></svg></g><g></g></svg></g><defs></defs></svg><rect width="377.8830732796038" height="247.2" fill="none" stroke="none" visibility="hidden"></rect></g></svg></g></svg>